<svg width="264" height="283" viewBox="0 0 264 283" fill="none" xmlns="http://www.w3.org/2000/svg">
<path d="M263.884 131.942C263.884 204.811 204.811 263.884 131.942 263.884C59.0722 263.884 0 204.811 0 131.942C0 59.0722 59.0722 -2.39687e-06 131.942 -2.39687e-06C204.811 -2.39687e-06 263.884 59.0722 263.884 131.942Z" fill="#C8ECFB"/>
<path d="M81.5372 65.6992C81.5372 65.6992 124.524 125.089 127.742 193.85C129.002 220.793 115.908 236.789 110.18 253.289C107.954 259.7 108.915 267.323 102.492 275.752C99.5964 279.553 105.604 281.838 107.722 282.502C108.172 282.644 108.631 282.71 109.102 282.703C118.054 282.56 212.466 278.145 208.243 155.333C204.23 38.6054 92.9711 44.7258 92.9711 44.7258L78.1437 39.1146L69.0182 57.0891L81.5372 65.6992" fill="#38395F"/>
<path d="M176.308 251.169C149.097 279.33 111.828 280.248 108.744 280.272C108.631 280.239 108.518 280.207 108.412 280.175C106.221 279.501 104.265 278.308 104.151 277.723C104.151 277.723 104.167 277.561 104.427 277.228C109.159 271.028 110.173 265.282 111.074 260.218C111.464 258.026 111.828 255.958 112.478 254.09C114.037 249.594 116.179 245.106 118.442 240.35C124.384 227.885 131.113 213.747 130.171 193.733C126.956 125.041 84.4135 63.133 84.4135 63.133L72.1507 56.2922L74.9909 50.7002L78.8305 43.1364L79.325 42.1623L92.375 47.1043L92.587 47.186L93.1058 47.1538C93.1136 47.1538 93.5603 47.1295 94.3885 47.1208C94.7778 47.1043 95.2401 47.1043 95.7919 47.1043C113.541 47.1043 202.263 52.3313 205.81 155.419C207.247 197.206 197.321 229.418 176.308 251.169" fill="white"/>
<path d="M173.25 251.169C149.486 275.76 118.045 279.582 108.412 280.175C108.226 280.118 108.039 280.053 107.852 279.988C105.896 279.298 104.257 278.26 104.151 277.723C104.151 277.723 104.167 277.561 104.427 277.228C109.159 271.028 110.173 265.282 111.074 260.218C111.464 258.026 111.828 255.958 112.478 254.09C114.037 249.594 116.179 245.106 118.442 240.351C124.384 227.885 131.113 213.747 130.171 193.733C126.956 125.041 84.4135 63.133 84.4135 63.133L72.1507 56.2923L74.9909 50.7002L75.8762 48.9553L78.8305 43.1364L91.897 48.1601C91.897 48.1601 93.2431 48.0871 94.7369 48.0785H95.0941C95.5894 48.0785 96.1404 48.0871 96.7504 48.095C117.737 48.4443 199.309 55.2121 202.75 155.419C204.186 197.206 194.261 229.418 173.25 251.169" fill="#fedd76"/>
<path d="M107.852 279.988C105.896 279.298 104.257 278.26 104.151 277.723C104.151 277.723 104.167 277.561 104.427 277.228C109.159 271.028 110.173 265.282 111.074 260.218C111.464 258.026 111.828 255.958 112.478 254.09C114.037 249.594 116.179 245.106 118.442 240.35C124.384 227.885 131.113 213.747 130.171 193.733C126.956 125.041 84.8439 63.3772 84.4135 62.7767V63.133L72.1507 56.2922L74.9909 50.7002L75.8762 48.9553C84.1056 52.1688 91.3044 54.9774 91.3044 54.9774C91.3044 54.9774 107.04 56.9492 119.352 79.1218C131.087 100.239 184.725 178.897 107.852 279.988" fill="#FABC09"/>
<path d="M193.746 107.196C193.746 107.196 184.808 112.942 179.701 109.75C174.594 106.558 170.125 93.1519 170.125 93.1519L165.337 94.4284C165.337 94.4284 168.848 113.58 165.976 116.772C163.103 119.963 137.886 126.986 135.014 126.029C132.141 125.07 124.161 109.75 124.161 109.75C124.161 109.75 157.038 84.534 175.871 85.4907C194.703 86.4484 193.746 107.196 193.746 107.196Z" fill="#FABC09"/>
<path d="M150.017 129.04C150.017 129.04 157.315 159.01 172.472 137.093L150.017 129.04Z" fill="#38395F"/>
<path d="M197.954 103.047C195.708 103.708 192.017 104.817 187.327 106.296C183.968 107.354 180.294 106.233 178.115 103.466C174.89 99.3713 171.71 89.8462 171.71 89.8462L163.628 92.4115C163.628 92.4115 166.651 100.223 167.682 106.82C167.893 108.16 167.609 109.432 167.028 110.611C166.082 112.534 164.328 113.931 162.309 114.648C156.479 116.716 150.382 118.978 144.317 121.375C141.892 122.335 139.195 122.53 136.716 121.722C134.407 120.97 132.021 119.332 130.853 115.887C128.19 108.022 127.623 107.178 127.623 107.178L111.984 123.908C110.304 125.705 107.304 124.947 106.685 122.568C106.678 122.542 106.673 122.515 106.666 122.49C106.429 121.577 106.62 120.599 107.182 119.842L121.649 100.375C123.257 98.2121 125.307 96.421 127.674 95.1306C136.726 90.1981 161.08 78.6717 187.541 80.8581C188.872 80.9719 190.065 81.7106 190.787 82.8307C193.271 86.6691 197.426 95.7102 199.35 100.004C199.91 101.229 199.244 102.666 197.954 103.047" fill="#38395F"/>
<path d="M130.043 102.197C130.043 102.474 133.35 108.923 135.743 113.553C137.124 116.226 140.271 117.457 143.099 116.433L157.323 111.291L139.785 111.399L130.043 102.197" fill="white"/>
<path d="M176.093 92.7112C176.085 92.9076 178.252 97.602 179.819 100.973C180.724 102.918 182.93 103.888 184.977 103.243L195.265 99.9987L182.764 99.5573L176.093 92.7112Z" fill="white"/>
<path d="M159.192 91.9014C159.192 91.9014 164.004 103.423 163.567 107.944C163.567 107.944 158.609 99.6311 159.192 91.9014Z" fill="#4C4C81"/>
<path d="M189.571 84.7086C189.571 84.7086 196.071 95.3695 196.323 99.904C196.323 99.904 190.165 92.4375 189.571 84.7086Z" fill="#4C4C81"/>
<path d="M128.791 95.9926C128.373 96.1673 161.216 80.4227 185.499 82.709C185.499 82.709 145.932 88.8511 128.791 95.9926" fill="#4C4C81"/>
<path d="M153.237 131.584L168.94 137.523C168.94 137.523 156.76 142.556 153.237 131.584Z" fill="white"/>
<path d="M116.559 148.023C116.559 148.023 48.5589 186.205 58.3586 197.477C67.1867 207.632 89.1362 183.266 105.25 167.303" stroke="#38395F" stroke-width="13.3333" stroke-miterlimit="10"/>
<path d="M92.1569 213.979C83.1762 214.578 73.3194 205.308 68.7194 191.938C63.4494 176.62 66.8585 162.028 76.4804 158.717C77.4807 158.374 78.5307 158.162 79.6 158.09C88.5801 157.491 98.4363 166.762 103.037 180.132C108.306 195.449 104.898 210.041 95.2766 213.351C94.2746 213.696 93.2257 213.908 92.1569 213.979" fill="#38395F"/>
<path d="M100.735 180.924C105.487 194.738 100.324 203.889 92.793 208.2C86.1871 211.982 75.7743 204.961 71.0219 191.146C66.2689 177.33 69.0677 163.844 77.272 161.02C85.4776 158.197 95.9822 167.108 100.735 180.924" fill="white"/>
<path d="M105.499 178.639C110.251 192.454 107.453 205.942 99.2479 208.765C91.0428 211.587 80.5385 202.677 75.7852 188.862C71.0328 175.046 73.8309 161.559 82.0362 158.736C90.2407 155.913 100.745 164.824 105.499 178.639Z" fill="#EEF9FE"/>
<path d="M112.518 214.276C107.232 214.629 102.297 214.304 100.237 213.465C84.5333 207.089 74.5177 183.706 72.8696 150.597C71.9782 132.692 56.9122 117.309 53.717 114.239C53.256 113.796 52.8517 113.288 52.5944 112.702C50.5729 108.1 52.1972 99.1775 59.5586 95.3478C60.0762 95.0697 60.6503 94.7908 61.2881 94.5084C62.6164 93.9174 64.5672 93.4986 66.6379 93.3604C70.2656 93.118 79.5412 93.4482 87.3009 101.715C99.5295 114.745 100.832 130.719 100.008 138.814C101.414 138.251 101.984 138.205 103.851 137.606C108.111 136.23 112.007 135.417 115.43 135.188C122.044 134.747 126.828 136.483 129.649 140.347C133.839 146.089 133.315 151.6 132.205 155.12C135.713 155.64 140.909 157.881 142.684 166.313C144.751 176.156 140.32 182.856 137.057 186.281C137.709 186.803 138.345 187.476 138.889 188.342C140.818 191.413 140.824 195.707 138.907 201.104C136.133 208.912 126.702 212.133 119.28 213.459C117.106 213.848 114.832 214.121 112.518 214.276" fill="#38395F"/>
<path d="M136.613 200.288C134.401 206.512 126.616 209.675 118.852 211.063C118.57 211.114 118.289 211.157 118.015 211.201C110.507 212.287 103.136 210.078 101.097 209.246C87.7779 203.839 77.3178 185.178 76.7883 150.311C76.464 129.112 62.0135 115.744 57.7887 112.285C57.0656 111.69 54.7532 102.385 61.3092 98.9707C61.8119 98.7013 62.3394 98.4458 62.9005 98.1973C63.279 98.0252 63.7559 97.8471 64.3211 97.6716C68.605 96.2872 77.81 95.161 85.5251 103.382C99.1766 117.925 96.8738 137.429 96.0413 142.267C95.924 142.942 95.8371 143.339 95.831 143.38C96.0604 143.275 99.7389 141.484 104.597 139.923C112.344 137.421 123.09 135.493 127.683 141.783C133.636 149.942 128.421 157.603 128.421 157.603C128.421 157.603 137.872 155.273 140.301 166.815C143.066 179.987 132.662 186.91 132.662 186.91C132.662 186.91 141.043 187.816 136.613 200.288" fill="#EEF9FE"/>
<path d="M129.832 202.034C128.278 206.407 123.97 209.265 118.852 211.063C118.57 211.114 118.289 211.157 118.015 211.201C110.501 212.311 103.161 210.434 101.121 209.603C87.8023 204.196 75.9101 185.662 75.3812 150.795C75.1083 133.05 64.071 118.91 57.7887 112.285C57.7839 112.279 57.7796 112.274 57.7748 112.27C56.6613 111.098 55.9618 109.587 55.8521 107.975C55.6555 105.082 56.6074 101.42 61.3092 98.9707C61.8119 98.7013 62.3394 98.4459 62.9005 98.1973C63.279 98.0253 63.7559 97.8471 64.3211 97.6716C68.7992 98.2269 74.1286 100.206 78.7436 105.128C94.2599 121.662 89.1614 144.598 89.0502 145.126C89.224 145.049 92.0682 143.664 96.0413 142.267C98.5692 141.383 101.552 140.485 104.597 139.923C110.935 138.728 117.561 138.936 120.91 143.529C126.863 151.688 121.64 159.349 121.64 159.349C121.64 159.349 131.099 157.017 133.52 168.56C136.294 181.732 125.881 188.657 125.881 188.657C125.881 188.657 134.263 189.562 129.832 202.034" fill="white"/>
<path d="M129.833 145.545C129.833 145.545 133.454 153.946 122.663 157.938C113.992 161.144 109.659 162.532 111.637 162.933C113.617 163.333 130.217 159.359 133.527 157.723C134.565 157.21 132.329 157.172 131.776 154.191C131.222 151.212 129.833 145.545 129.833 145.545" fill="#38395F"/>
<path d="M138.146 180.766C133.069 185.939 124.343 185.933 120.321 187.497C111.388 190.974 132.3 185.336 135.504 188.139C135.504 188.139 139.479 179.409 138.146 180.766" fill="#38395F"/>
<path d="M79.8631 158.016C78.7181 167.347 81.9965 187.396 92.607 202.088C93.0954 202.766 94.2963 202.178 93.9183 201.415C89.6958 192.92 83.0268 173.743 81.287 157.562C81.1876 156.64 79.9767 157.088 79.8631 158.016Z" fill="#38395F"/>
<path d="M75.8948 45.5279L92.0787 53.7408C92.0787 53.7408 111.745 52.9457 122.031 82.7273C122.031 82.7273 109.592 55.5527 91.1124 56.519L75.8762 48.9553L75.8948 45.5279" fill="white"/>
<path d="M71.1296 49.7391L91.1097 57.3046C91.1097 57.3046 104.883 52.2609 123.7 87.1783C123.7 87.1783 115.747 56.917 91.3044 54.9765L74.2383 45.8911L71.1296 49.7391" fill="#38395F"/>
<path d="M76.5737 38.6211C76.5737 38.6211 64.0954 45.1099 67.0901 57.0882L78.3552 63.3876C78.3552 63.3876 73.4973 51.0191 82.7314 40.7866L76.5737 38.6211Z" fill="#38395F"/>
<path d="M143.254 211.184C143.254 211.184 137.037 251.124 114.555 270.257C114.555 270.257 136.798 234.622 143.254 211.184Z" fill="white"/>
<path d="M146.169 200.271C146.169 200.271 135.531 244.235 120.641 263.381C105.751 282.526 108.744 280.272 108.744 280.272L104.152 277.727C104.152 277.727 120.641 275.435 146.169 200.271Z" fill="#38395F"/>
<path d="M108.361 270.139C108.361 270.139 105.139 276.583 107.556 275.663C109.972 274.743 111.928 274.512 111.928 274.512C111.928 274.512 107.901 280.267 113.656 280.151C119.41 280.037 108.86 281.955 105.407 280.804C101.955 279.653 102.377 274.282 108.361 270.139Z" fill="#38395F"/>
</svg>
